<?xml version="1.0" encoding="UTF-8"?><svg id="Layer_1" xmlns="http://www.w3.org/2000/svg" viewBox="0 0 270.62 409"><defs><style>.cls-1{fill:#fff;}</style></defs><path class="cls-1" d="m39.98,221.41s15.21,24.44,15.21,35.66c0,7.48,8.42,3.74,7.95,0-.47-3.74,2.86-3.07,2.86-3.07l-26.02-32.59Z"/><path class="cls-1" d="m61.5,282.92s6.54,47.67,9.23,58.43c3.08,12.3-6.15,18.45-12.3,18.45s-15.38-3.08-15.38-12.3,6.15-15.38,9.23-36.9c3.08-21.53,2.64-27.68,2.64-27.68,0,0,3.51-3.08,6.59,0Z"/><path class="cls-1" d="m175.29,267.54s-27.29,7.46-33.83,18.45c-6.48,10.9-6.15,15.38-3.08,39.98,3.08,24.6,6.15,52.28,8.8,68.22,1.53,9.22-5.72,14.81-11.87,14.81s-12.3-3.08-12.3-12.3c0-6.15,0-12.3,3.08-27.68,2.41-12.06,6.15-52.28,3.08-64.58-3.08-12.3-39.49-36.98-49.16-42.44-29.94-16.9,95.29,5.54,95.29,5.54Z"/><path class="cls-1" d="m243,220s-15,19-27.74,38.32c-6.77,10.27-12.3,36.9,3.08,52.28,7.84,7.84,0,15.38,0,15.38-5.21,4.32-20.57,6.43-23.13-2.22-2.37-8.01,1.61-19.31,1.61-22.38s6.23-30.91,0-33.83c-11.81-5.54-47.81,10.46-47.81,10.46l94-58Z"/><path class="cls-1" d="m135.31,0C60.58,0,0,61.27,0,136.85s60.58,136.85,135.31,136.85,135.31-61.27,135.31-136.85S210.04,0,135.31,0Zm52.28,199.89c-17.18-1.88-17.33-14.55-52.28-18.45-30.17-3.37-54.95,1.15-65.41,4.35-4.42,1.35-9.41-.01-12.02-3.83-.46-.67-.84-1.39-1.08-2.15,0,0-1.45-7.6,10.85-10.67,11.93-2.98,27.68-9.23,73.8-3.08,32.38,4.32,46.58,13.18,52.16,18.08,2.68,2.35,4.43,5.68,4.37,9.24-.05,3.62-2,7.43-10.41,6.51Zm15.92-35.74c-1.12-.23-2.33-.6-3.62-1.16-12.65-5.47-41.02-19.88-67.65-21.53-34.39-2.13-28.23-1.46-67.65,6.15-15.38,0-15.38-9.23-15.38-9.23,0,0,0-9.23,15.38-12.3,15.38-3.08,39.48-9.13,62.79-6.1,23.31,3.03,47.91,9.18,66.84,16.74,9.24,3.69,14.9,7.81,14.9,7.81,0,0,3.01,1,5.02,4.16,4.8,7.54-1.86,17.2-10.63,15.44Zm14.83-41.13c-32.34-15.01-24.34-13.01-58.43-21.53-13.86-3.46-37.12-3.26-49.2-3.08-34.97.52-53.96,7.35-53.96,7.35,0,0-7.55,1.88-13.7-7.35,0,0-6.15-12.3,12.3-18.45,18.45-6.15,67.7-7.07,76.88-6.15q30.75,3.08,55.35,9.23c24.6,6.15,43.05,12.3,46.13,24.6,2,8.02-1.19,21.96-15.38,15.38Z"/></svg>